<?xml version="1.0" encoding="utf-8"?>
<!-- Generator: Adobe Illustrator 17.1.0, SVG Export Plug-In . SVG Version: 6.00 Build 0)  -->
<!DOCTYPE svg PUBLIC "-//W3C//DTD SVG 1.1//EN" "http://www.w3.org/Graphics/SVG/1.1/DTD/svg11.dtd">
<svg version="1.1" id="Calque_1" xmlns="http://www.w3.org/2000/svg" xmlns:xlink="http://www.w3.org/1999/xlink" x="0px" y="0px"
	 viewBox="0 0 136.3 136.3" enable-background="new 0 0 136.3 136.3" xml:space="preserve">
<path fill="#DDDDDD" d="M68.9,1.5C32.5,1.5,3,31,3,67.4c0,36.4,29.5,65.9,65.9,65.9c36.4,0,65.9-29.5,65.9-65.9
	C134.8,31,105.3,1.5,68.9,1.5z M64.8,31.4c1.6-1.6,3.7-2.5,6.2-2.5c2.6,0,4.7,0.8,6.3,2.5c1.6,1.6,2.4,3.8,2.4,6.3
	c0,2.6-0.8,4.7-2.4,6.3c-1.6,1.6-3.7,2.5-6.3,2.5c-2.5,0-4.6-0.8-6.2-2.5c-1.6-1.6-2.5-3.8-2.5-6.3C62.4,35.2,63.2,33.1,64.8,31.4z
	 M86.1,107.9c0,0.4-0.1,0.8-0.3,1.1c-2-0.2-4.2-0.3-6.5-0.4c-2.3-0.1-5.1-0.2-8.2-0.2c-3.1,0-5.8,0.1-8.1,0.2
	c-2.2,0.1-4.4,0.3-6.5,0.4c-0.2-0.8-0.2-1.6-0.2-2.3c0-0.6,0.1-0.9,0.4-1.1c0.3-0.2,0.6-0.3,0.9-0.4c2.6-0.5,4.2-1,5.1-1.6
	c1-0.6,1.3-1.4,1.3-2.6V69.2c0-2.4-0.3-4.3-1.1-5.5c-0.8-1.3-2.6-2-5.5-2.3c-1-0.2-1.4-0.8-1.4-1.9c0-0.2,0-0.5,0-0.9
	c0-0.4,0-0.7,0.2-1c0.5,0,1.2,0,2.1-0.1c0.9,0,1.9-0.1,2.9-0.1c1,0,2.1-0.1,3.1-0.2c1-0.1,2-0.2,2.9-0.2c2-0.2,3.9-0.6,5.8-1
	c1.8-0.4,3.1-0.6,3.7-0.6c1.3,0,1.9,0.6,1.9,1.8c0,0.9-0.1,2-0.3,3.5c-0.2,1.4-0.3,3.5-0.3,6V101c0,1.2,0.5,2.1,1.5,2.6
	c1,0.6,2.8,1.1,5.2,1.6c0.9,0.2,1.3,0.7,1.3,1.6C86.1,107.1,86.1,107.5,86.1,107.9z"/>
</svg>
