<svg xmlns="http://www.w3.org/2000/svg" width="56" height="64" viewBox="0 0 56 64"><path d="M5.112,0.011c-2.802,0-5.073,2.273-5.073,5.074v53.841 C0.039,61.729,2.311,64,5.112,64h45.775c2.801,0,5.074-2.271,5.074-5.074V20.321L37.057,0.011H5.112z" fill-rule="evenodd" clip-rule="evenodd" fill="#3C8CEA"/><path d="M10.133 37.439H31.697V39.498H10.133zM10.133 42.24H31.697V44.297000000000004H10.133zM10.133 47.041H31.697V49.098H10.133zM10.133 51.841H22.366V53.899H10.133z" fill="#fff"/><g fill-rule="evenodd" clip-rule="evenodd"><path d="M55.96,20.377v1c0,0-10.361,0-12.799,0 s-6.312-1.26-6.129-6.707c0,0,0.208,5.707,6.004,5.707C48.765,20.377,55.96,20.377,55.96,20.377z" fill="#2D6FE4"/><path d="M37.058,0.025c0,0,0,12.963,0,14.561 c0,1.656,1.104,5.791,6.104,5.791s12.799,0,12.799,0L37.058,0.025z" opacity=".5" fill="#fff"/></g></svg>