<svg xmlns="http://www.w3.org/2000/svg" width="56" height="63.997" viewBox="0 0 56 63.997"><path d="m 5.5814348,0.008 c -2.801,0 -5.07200003,2.272 -5.07200003,5.074 v 53.841 c 0,2.803 2.27100003,5.074 5.07200003,5.074 H 51.356435 c 2.801,0 5.074,-2.271 5.074,-5.074 V 20.317 L 37.527435,0.008 H 5.5814348 z" fill="#a382d8" fill-rule="evenodd"/><g fill-rule="evenodd" clip-rule="evenodd"><path d="M55.977,20.352v1c0,0-10.361,0-12.799,0 s-6.312-1.26-6.129-6.707c0,0,0.208,5.707,6.004,5.707C48.781,20.352,55.977,20.352,55.977,20.352z" fill="#8C62CE"/><path d="M37.074,0c0,0,0,12.963,0,14.561 c0,1.656,1.104,5.791,6.104,5.791s12.799,0,12.799,0L37.074,0z" opacity=".5" fill="#fff"/></g><path fill="#fff" d="M10.123 34.515H29.537999999999997V53.93H10.123z"/><path fill="#cbbbef" d="M11.568 35.96H28.092999999999996V52.485H11.568z"/><path d="m 22.770169,44.222595 a 2.9395735,2.9395735 0 1 1 -5.879148,0 2.9395735,2.9395735 0 1 1 5.879148,0 z" transform="matrix(1.249 0 0 1.618 -4.937 -28.54)" fill="#fff"/><path d="M 19.84375 47.1875 C 16.160263 47.1875 12.987365 48.537563 11.5625 50.46875 L 11.5625 52.5 L 28.09375 52.5 L 28.09375 50.46875 C 26.668885 48.537563 23.527237 47.1875 19.84375 47.1875 z" fill="#fff"/></svg>