<svg xmlns="http://www.w3.org/2000/svg" width="56" height="64" viewBox="0 0 56 64"><path d="M5.075,0.006c-2.802,0-5.073,2.273-5.073,5.074v53.841 c0,2.803,2.271,5.074,5.073,5.074h45.774c2.802,0,5.074-2.271,5.074-5.074V20.316L37.02,0.006H5.075z" fill-rule="evenodd" clip-rule="evenodd" fill="#dc4638"/><path d="M55.923,20.357v0.999c0,0-10.362,0-12.8,0 s-6.312-1.26-6.128-6.707c0,0,0.253,5.708,6.003,5.708C48.728,20.357,55.923,20.357,55.923,20.357z" fill-rule="evenodd" clip-rule="evenodd" fill="#ae2c1e"/><path d="M37.02,0.006c0,0,0,12.962,0,14.56 c0,1.656,1.104,5.792,6.104,5.792s12.8,0,12.8,0L37.02,0.006z" opacity=".5" fill-rule="evenodd" clip-rule="evenodd" fill="#fff"/><path d="m 34.136,53.923 c -0.306,0 -0.594,-0.18 -0.72,-0.486 l -0.9,-2.287 h -5.978 l -0.9,2.287 c -0.126,0.306 -0.414,0.486 -0.72,0.486 -0.468,0 -0.811,-0.378 -0.811,-0.792 0,-0.09 0.018,-0.198 0.054,-0.288 l 4.141,-10.335 c 0.198,-0.486 0.667,-0.811 1.225,-0.811 0.522,0 0.99,0.324 1.188,0.811 l 4.177,10.335 c 0.036,0.09 0.054,0.198 0.054,0.288 0,0.36 -0.324,0.792 -0.81,0.792 z m -4.61,-10.569 -2.557,6.463 h 5.095 l -2.538,-6.463 z" fill="#fff"/><path d="m 38.039,53.923 c -0.414,0 -0.738,-0.324 -0.738,-0.738 V 42.417 c 0,-0.396 0.324,-0.72 0.774,-0.72 0.396,0 0.72,0.324 0.72,0.72 v 10.767 c 0,0.415 -0.324,0.739 -0.756,0.739 z" fill="#fff"/><path d="m 48.376452,53.923 h -5.456 c -0.594,0 -1.08,-0.486 -1.08,-1.081 V 42.526 c 0,-0.396 0.324,-0.721 0.774,-0.721 0.396,0 0.72,0.324 0.72,0.721 v 10.065 h 5.042 c 0.36,0 0.647,0.288 0.647,0.648 10e-4,0.396 -0.287,0.684 -0.647,0.684 z" fill="#fff"/><path d="m 21.109,53.923 c -0.414,0 -0.738,-0.324 -0.738,-0.738 v -9.254 l -4.033,9.759 c -0.055,0.143 -0.2,0.233 -0.379,0.233 -0.144,0 -0.287,-0.09 -0.342,-0.234 L 11.601,43.93 v 9.254 c 0,0.414 -0.324,0.738 -0.756,0.738 -0.414,0 -0.738,-0.324 -0.738,-0.738 V 42.922 c 0,-0.648 0.559,-1.207 1.242,-1.207 0.486,0 0.99,0.288 1.188,0.756 l 3.438,8.373 3.457,-8.373 c 0.199,-0.468 0.686,-0.756 1.189,-0.756 0.684,0 1.242,0.558 1.242,1.207 v 10.263 c 0.002,0.414 -0.322,0.738 -0.754,0.738 z" fill="#fff"/></svg>