<svg xmlns="http://www.w3.org/2000/svg" width="56" height="64" viewBox="0 0 56 64"><g><path d="M5.15,0.008c-2.801,0-5.072,2.273-5.072,5.074v53.842 c0,2.803,2.271,5.073,5.072,5.073h45.775c2.801,0,5.074-2.271,5.074-5.073V20.318L37.096,0.008H5.15z" fill-rule="evenodd" clip-rule="evenodd" fill="#45b058"/><path d="m 10.121,37.36073 0,16.50127 19.918,0 0,-16.50127 z" fill="#fff"/><path d="M55.977,20.352v1c0,0-10.361,0-12.799,0 s-6.312-1.26-6.129-6.707c0,0,0.208,5.707,6.004,5.707C48.781,20.352,55.977,20.352,55.977,20.352z" fill-rule="evenodd" clip-rule="evenodd" fill="#349c42"/><path d="M37.074,0c0,0,0,12.963,0,14.561 c0,1.656,1.104,5.791,6.104,5.791c5,0,12.799,0,12.799,0L37.074,0z" opacity=".5" fill-rule="evenodd" clip-rule="evenodd" fill="#fff"/><g fill="#fff" stroke="#45b058" stroke-width="1.333"><rect ry="1.697" width="3.394" height="5.994" x="14.086" y="33.638" transform="matrix(.75 0 0 .75 2.514 9.496)"/><rect y="33.638" x="14.086" height="5.994" width="3.394" ry="1.697" transform="matrix(.75 0 0 .75 13.972 9.496)"/></g><path d="m 11.409136,40.791458 0,11.782406 17.341728,0 0,-11.782406 z" fill="#45b058"/><g fill="#fff"><g><path d="m 17.109,42.290983 0,2.661017 2.661017,0 0,-2.661017 z" transform="matrix(1 0 0 .841 -.36 6.632)"/><path d="m 21.109,42.290983 0,2.661017 2.661017,0 0,-2.661017 z" transform="matrix(1 0 0 .841 -.36 6.632)"/><path d="m 25.109,42.290983 0,2.661017 2.661017,0 0,-2.661017 z" transform="matrix(1 0 0 .841 -.36 6.632)"/></g><g><path d="m 13.109,42.290983 0,2.661017 2.661017,0 0,-2.661017 z" transform="matrix(1 0 0 .841 -.36 9.996)"/><path d="m 17.109,42.290983 0,2.661017 2.661017,0 0,-2.661017 z" transform="matrix(1 0 0 .841 -.36 9.996)"/><path d="m 21.109,42.290983 0,2.661017 2.661017,0 0,-2.661017 z" transform="matrix(1 0 0 .841 -.36 9.996)"/><path d="m 25.109,42.290983 0,2.661017 2.661017,0 0,-2.661017 z" transform="matrix(1 0 0 .841 -.36 9.996)"/></g><g><path d="m 13.109,42.290983 0,2.661017 2.661017,0 0,-2.661017 z" transform="matrix(1 0 0 .841 -.36 13.36)"/><path d="m 17.109,42.290983 0,2.661017 2.661017,0 0,-2.661017 z" transform="matrix(1 0 0 .841 -.36 13.36)"/><path d="m 21.109,42.290983 0,2.661017 2.661017,0 0,-2.661017 z" transform="matrix(1 0 0 .841 -.36 13.36)"/></g></g></g></svg>