<svg xmlns="http://www.w3.org/2000/svg" width="56" height="63.996" viewBox="0 0 56 63.996"><g fill-rule="evenodd" clip-rule="evenodd"><path d="M5.113,0.007c-2.803,0-5.074,2.271-5.074,5.074v53.84 c0,2.803,2.271,5.074,5.074,5.074h45.774c2.801,0,5.074-2.271,5.074-5.074V20.315L37.058,0.007H5.113z" fill="#8199AF"/><path d="M55.976,20.352v1c0,0-10.361,0-12.799,0 s-6.312-1.26-6.129-6.707c0,0,0.208,5.707,6.004,5.707C48.781,20.352,55.976,20.352,55.976,20.352z" fill="#617F9B"/><path d="M37.074,0c0,0,0,12.963,0,14.561 c0,1.656,1.104,5.791,6.104,5.791s12.799,0,12.799,0L37.074,0z" opacity=".5" fill="#fff"/></g></svg>