<?xml version="1.0" encoding="UTF-8" standalone="no"?>
<svg
   xmlns:dc="http://purl.org/dc/elements/1.1/"
   xmlns:cc="http://creativecommons.org/ns#"
   xmlns:rdf="http://www.w3.org/1999/02/22-rdf-syntax-ns#"
   xmlns:svg="http://www.w3.org/2000/svg"
   xmlns="http://www.w3.org/2000/svg"
   xmlns:sodipodi="http://sodipodi.sourceforge.net/DTD/sodipodi-0.dtd"
   xmlns:inkscape="http://www.inkscape.org/namespaces/inkscape"
   width="56"
   height="64"
   viewBox="0 0 56 64"
   id="svg2"
   version="1.1"
   inkscape:version="0.48.5 r10040"
   sodipodi:docname="5252ce4ce4cfcd16f55cfa3e.svg">
  <metadata
     id="metadata18">
    <rdf:RDF>
      <cc:Work
         rdf:about="">
        <dc:format>image/svg+xml</dc:format>
        <dc:type
           rdf:resource="http://purl.org/dc/dcmitype/StillImage" />
      </cc:Work>
    </rdf:RDF>
  </metadata>
  <defs
     id="defs16" />
  <sodipodi:namedview
     pagecolor="#ffffff"
     bordercolor="#666666"
     borderopacity="1"
     objecttolerance="10"
     gridtolerance="10"
     guidetolerance="10"
     inkscape:pageopacity="0"
     inkscape:pageshadow="2"
     inkscape:window-width="1920"
     inkscape:window-height="1031"
     id="namedview14"
     showgrid="false"
     inkscape:zoom="2.6074563"
     inkscape:cx="-23.285445"
     inkscape:cy="87.231425"
     inkscape:window-x="0"
     inkscape:window-y="0"
     inkscape:window-maximized="1"
     inkscape:current-layer="svg2" />
  <path
     d="M5.112,0.011c-2.802,0-5.073,2.273-5.073,5.074v53.841 C0.039,61.729,2.311,64,5.112,64h45.775c2.801,0,5.074-2.271,5.074-5.074V20.321L37.057,0.011H5.112z"
     fill-rule="evenodd"
     clip-rule="evenodd"
     fill="#3C8CEA"
     id="path4"
     style="fill:#0e74af;fill-opacity:1" />
  <g
     fill-rule="evenodd"
     clip-rule="evenodd"
     id="g8">
    <path
       d="M55.96,20.377v1c0,0-10.361,0-12.799,0 s-6.312-1.26-6.129-6.707c0,0,0.208,5.707,6.004,5.707C48.765,20.377,55.96,20.377,55.96,20.377z"
       fill="#2D6FE4"
       id="path10"
       style="fill:#105a86;fill-opacity:1" />
    <path
       d="M37.058,0.025c0,0,0,12.963,0,14.561 c0,1.656,1.104,5.791,6.104,5.791s12.799,0,12.799,0L37.058,0.025z"
       opacity=".5"
       fill="#fff"
       id="path12" />
  </g>
  <g
     transform="translate(-117.66838,-650.03343)"
     id="g3011">
    <path
       style="fill:#ffffff;fill-opacity:1;fill-rule:nonzero;stroke:none"
       d="m 128.08314,682.33842 c -0.27756,0 -0.50155,0.22398 -0.50155,0.50154 l 0,20.96694 c 0,0.27756 0.22399,0.50154 0.50155,0.50154 l 20.97071,0 c 0.27756,0 0.50155,-0.22398 0.50155,-0.50154 l 0,-20.96694 c 0,-0.27756 -0.22399,-0.50154 -0.50155,-0.50154 l -20.97071,0 z m 1.93077,1.92699 6.97263,0 c 0.27757,0 0.50155,0.22022 0.50155,0.49777 l 0,14.94084 c 0,0.27756 -0.22398,0.50154 -0.50155,0.50154 l -6.97263,0 c -0.27756,0 -0.50155,-0.22398 -0.50155,-0.50154 l 0,-14.94084 c 0,-0.27755 0.22399,-0.49777 0.50155,-0.49777 z m 10.13653,0 6.97264,0 c 0.27756,0 0.50155,0.22022 0.50155,0.49777 l 0,8.54516 c 0,0.27757 -0.22399,0.50155 -0.50155,0.50155 l -6.97264,0 c -0.27756,0 -0.50154,-0.22398 -0.50154,-0.50155 l 0,-8.54516 c 0,-0.27755 0.22398,-0.49777 0.50154,-0.49777 z"
       id="rect3888"
       inkscape:connector-curvature="0" />
  </g>
</svg>
